<svg width="19" height="13" viewBox="0 0 19 13" fill="none" xmlns="http://www.w3.org/2000/svg">
<path d="M15.1659 0.884414L16.0256 0.0444336C17.9242 1.72297 19 4.06069 19 6.50608C19 8.9685 17.9101 11.3197 15.9896 13L15.12 12.1342C16.8002 10.6792 17.7553 8.63277 17.7553 6.48905C17.7553 4.36617 16.8185 2.3375 15.1659 0.884414Z" fill="#4D4D4D"/>
<path d="M13.6643 5.20601H14.3505C14.3312 4.74916 14.0454 4.33911 13.6065 4.13879C13.4284 4.06293 13.2348 4.02386 13.0393 4.02386C12.7165 4.02386 12.4042 4.13022 12.1569 4.32434C11.8638 4.57016 11.6961 4.92149 11.6961 5.28985C11.6961 5.29056 11.6961 5.29104 11.6961 5.29152H11.6964C11.6946 5.31641 11.6938 5.3413 11.6938 5.36595C11.6938 5.72562 11.8714 6.06492 12.1752 6.28477V6.28501C12.5052 6.46115 12.8577 6.59692 13.2246 6.68934C13.5698 6.77259 13.8111 7.06401 13.8111 7.39808C13.8111 7.40737 13.8109 7.4169 13.8104 7.42666C13.8088 7.70439 13.6628 7.96402 13.4186 8.12194C13.2976 8.18899 13.1599 8.22401 13.0196 8.22401C12.8661 8.22401 12.7164 8.18232 12.5882 8.103V8.10348C12.3831 7.95711 12.2551 7.73548 12.2364 7.4955L12.2361 7.49502L11.5499 7.4955C11.5681 7.95378 11.8172 8.37633 12.2213 8.63548C12.4579 8.77387 12.7311 8.84735 13.0102 8.84735C13.1404 8.84735 13.27 8.83175 13.3955 8.79971H13.396C13.7719 8.69622 14.0934 8.46434 14.2956 8.15005C14.4331 7.9221 14.5055 7.66485 14.5055 7.4032C14.5055 7.26779 14.4856 7.13261 14.4477 7.0022C14.3224 6.56143 13.9695 6.20903 13.5083 6.06337C13.223 6.00311 12.9461 5.91105 12.6847 5.78886C12.4961 5.65952 12.385 5.45349 12.385 5.23483C12.385 5.09918 12.4279 4.96662 12.5083 4.85384H12.5078C12.6284 4.70104 12.8194 4.61101 13.0224 4.61101C13.182 4.61101 13.3355 4.66686 13.4534 4.76738C13.5732 4.88802 13.6469 5.04201 13.6643 5.20601Z" fill="#4D4D4D"/>
<path d="M10.47 6.29493C10.7915 6.06067 10.9796 5.7004 10.9796 5.31894C10.9796 4.6364 10.3884 4.08261 9.65965 4.08261C9.65216 4.08261 9.64479 4.08261 9.63729 4.08261L8.37427 4.08285V8.7901H9.60058C9.64377 8.79379 9.68747 8.79593 9.73079 8.79593C10.5239 8.79593 11.1678 8.1926 11.1678 7.44932C11.1678 6.97651 10.9031 6.53824 10.47 6.29493ZM9.06987 4.65713H9.56413C9.96972 4.67344 10.293 4.98 10.3055 5.36027C10.2953 5.73994 9.96934 6.04554 9.56413 6.05483H9.06987V4.65713ZM10.3789 7.48219C10.3789 7.86556 10.0472 8.17628 9.63831 8.17628C9.61354 8.17628 9.58864 8.17509 9.56413 8.17283H9.06987V6.69807H9.56413C9.58026 6.69711 9.59639 6.69664 9.61252 6.69664C10.0363 6.69664 10.3801 7.01879 10.3801 7.41585C10.3801 7.43074 10.3796 7.44563 10.3786 7.46099C10.3786 7.46802 10.3789 7.47516 10.3789 7.48219Z" fill="#4D4D4D"/>
<path d="M6.69923 4.09116H5.71083L4.6217 8.79888H5.36303L5.50048 8.16434H6.82752L6.97386 8.79888H7.76104L6.69923 4.09116ZM5.64681 7.50372L6.18667 5.03439L6.69923 7.50372H5.64681Z" fill="#4D4D4D"/>
<path d="M9.45088 0C5.63309 0 2.53491 2.90295 2.53491 6.47951C2.53491 10.0563 5.63322 12.9593 9.45088 12.9593C13.2685 12.9593 16.3666 10.0563 16.3666 6.47951C16.3667 2.90295 13.2687 0 9.45088 0ZM9.45088 12.1177C6.12888 12.1177 3.43274 9.59159 3.43274 6.47951C3.43274 3.36742 6.12888 0.841291 9.45088 0.841291C12.7726 0.841291 15.4685 3.36742 15.4685 6.47951C15.4685 9.59171 12.7728 12.1177 9.45088 12.1177Z" fill="#4D4D4D"/>
<path d="M3.83468 0.884414L2.97471 0.0444336C1.0763 1.72297 0 4.06069 0 6.50608C0 8.9685 1.0904 11.3197 3.01091 13L3.88029 12.1342C2.2001 10.6792 1.24499 8.63277 1.24499 6.48905C1.24512 4.36617 2.18245 2.3375 3.83468 0.884414Z" fill="#4D4D4D"/>
</svg>
