<svg width="17" height="14" viewBox="0 0 17 14" fill="none" xmlns="http://www.w3.org/2000/svg">
<path d="M4.25152 0H4.63538L6.14675 2.47262L6.92412 1.18411H7.78688L6.5815 3.18366L8.49974 6.32125L10.4185 3.18366L9.2126 1.18411H10.0756L10.8527 2.47262L12.3644 0H12.7485L12.9752 0.368415L11.4943 2.79797L13.0343 2.79772L13.4447 3.51164H11.0592L9.15007 6.64535H12.892L14.1264 4.65269L14.5779 5.32843L13.7607 6.64535H16.8097L17 6.95681L16.7597 7.35489H13.7607L14.5779 8.6717L14.1264 9.34681L12.892 7.35489H9.15007L11.0592 10.4886H13.4447L13.0343 11.2018H11.4943L12.9752 13.6311L12.7485 14H12.3644L10.8527 11.5276L10.0756 12.8154H9.2126L10.4185 10.8166L8.49974 7.67824L6.5815 10.8166L7.78688 12.8154H6.92412L6.14675 11.5276L4.63538 14H4.25152L4.0243 13.6311L5.50461 11.2018H3.96442L3.55518 10.4886H5.93936L7.84953 7.35489H4.10797L2.87286 9.34681L2.42238 8.6717L3.23847 7.35489H0.239779L0 6.95681L0.190079 6.64535H3.23847L2.42238 5.32843L2.87286 4.65269L4.10797 6.64535H7.84966L5.93949 3.51164H3.55518L3.96442 2.79797H5.50461L4.0243 0.36854L4.25152 0Z" fill="#4D4D4D"/>
</svg>
