<svg width="15" height="15" viewBox="0 0 15 15" fill="none" xmlns="http://www.w3.org/2000/svg">
<path d="M9.0959 9.01452L11.1279 8.54215C11.2105 8.52244 11.2949 8.51264 11.3795 8.51264C11.7755 8.51264 12.1466 8.72411 12.3739 9.07841L14.8246 12.9096C14.9384 13.0901 15 13.3024 15 13.521C15 14.1059 14.5654 14.5826 14.0294 14.5826C13.713 14.5826 13.4163 14.4132 13.2339 14.1301L11.4102 11.2781C11.2743 11.0656 11.0511 10.938 10.814 10.938C10.7202 10.938 10.6283 10.9577 10.5416 10.9971L8.07437 12.0872L9.0959 9.01452ZM6.64199 3.71847C6.64199 1.66584 8.1638 0 10.0394 0C11.9149 0 13.4365 1.66584 13.4365 3.71847C13.4365 5.7713 11.9149 7.43732 10.0394 7.43732C8.1638 7.43732 6.64199 5.7713 6.64199 3.71847ZM2.73278 4.82078C2.51947 5.09082 2.3533 5.40299 2.24708 5.74104H2.2469L0 4.32133V3.09404L2.73278 4.82078ZM2.54112 2.6653C2.54112 1.78577 3.19435 1.07158 3.99643 1.07158C4.80107 1.07158 5.45464 1.78577 5.45464 2.6653C5.45464 3.54483 4.80107 4.25912 3.99643 4.25912C3.19435 4.25903 2.54112 3.54483 2.54112 2.6653ZM6.92794 7.7693L5.62643 11.6802L3.39512 7.44676C3.26826 7.20464 3.20066 6.92881 3.20066 6.65008C3.20066 5.77074 3.85192 5.05636 4.65597 5.05636C5.17568 5.05636 5.65601 5.36031 5.91715 5.85322L6.92794 7.7693ZM8.39058 8.80575C8.08366 8.68684 7.78799 8.53552 7.50835 8.35365V8.35384L5.29871 15H6.33072L8.39058 8.80575Z" fill="#4D4D4D"/>
</svg>
