<svg width="48" height="48" viewBox="0 0 48 48" fill="none" xmlns="http://www.w3.org/2000/svg">
<path d="M40.011 20.9089H24V27.4849H33.149C32.9598 28.5251 32.5617 29.516 31.9787 30.3979C31.3956 31.2798 30.6399 32.0344 29.757 32.6159V36.8809H35.251C36.9247 35.2689 38.2409 33.3231 39.1141 31.1697C39.9874 29.0163 40.3982 26.7034 40.32 24.3809C40.3207 23.2167 40.2173 22.0547 40.011 20.9089V20.9089Z" fill="#4285F4"/>
<path d="M35.2509 36.881L29.7569 32.616C28.0427 33.7191 26.0378 34.2843 23.9999 34.239C21.8804 34.2126 19.8227 33.5221 18.1163 32.2647C16.4099 31.0074 15.1409 29.2465 14.4879 27.23H8.80786V31.63C10.222 34.4471 12.3918 36.8154 15.0746 38.4701C17.7575 40.1248 20.8477 41.0008 23.9999 41C28.1383 41.1122 32.1631 39.6387 35.2509 36.881Z" fill="#34A853"/>
<path d="M13.955 24.001C13.9574 22.901 14.1374 21.8086 14.488 20.766V16.366H8.80797C7.61894 18.7353 6.99976 21.3495 6.99976 24.0005C6.99976 26.6514 7.61894 29.2657 8.80797 31.635L14.488 27.235C14.1375 26.1927 13.9575 25.1006 13.955 24.001Z" fill="#FBBC05"/>
<path d="M30.4979 16.2999L35.3739 11.4239C32.2963 8.53544 28.2203 6.95005 23.9999 6.99992C20.8483 6.99869 17.7584 7.87387 15.0756 9.52768C12.3928 11.1815 10.2227 13.5487 8.80786 16.3649L14.4879 20.7649C15.1409 18.7484 16.4099 16.9875 18.1163 15.7302C19.8227 14.4728 21.8804 13.7823 23.9999 13.7559C26.4162 13.7159 28.7509 14.63 30.4979 16.2999Z" fill="#EA4335"/>
</svg>
