<svg width="161" height="160" viewBox="0 0 161 160" fill="none" xmlns="http://www.w3.org/2000/svg">
<path d="M57.3092 51.291C65.8832 51.291 69.2092 42.297 62.3372 38.14C61.0902 37.4019 59.6451 37.0686 58.2009 37.1861C56.7566 37.3036 55.3844 37.8661 54.2731 38.796C54.2731 38.796 54.2732 31.066 45.2132 31.212C36.1292 31.358 37.1732 41.057 37.1732 41.057C37.1732 41.057 32.4612 41.203 31.9032 45.41C31.2712 50.053 37.0772 51.293 40.1132 51.293L57.3092 51.291Z" fill="#EAEAFF"/>
<path d="M99.8382 47.5219C100.299 48.1767 100.828 48.7802 101.417 49.3219C101.702 49.5835 102.011 49.8179 102.34 50.0219C102.659 50.2382 103.001 50.4177 103.36 50.5569C103.712 50.6914 104.079 50.7811 104.453 50.8239C104.824 50.8725 105.199 50.8725 105.57 50.8239C106.287 50.7921 106.965 50.4877 107.465 49.9729C107.686 49.7093 107.847 49.4016 107.939 49.0705C108.032 48.7394 108.052 48.3925 107.999 48.0529C107.929 47.3396 107.621 46.6705 107.125 46.1529C106.913 45.9193 106.634 45.7577 106.325 45.6909C106.18 45.6708 106.034 45.6628 105.888 45.6669C105.743 45.6898 105.603 45.7393 105.475 45.8129C105.346 45.8895 105.231 45.9883 105.135 46.1049C105.027 46.2292 104.937 46.3682 104.868 46.5179C104.724 46.8433 104.633 47.1897 104.599 47.5439C104.54 48.3024 104.639 49.065 104.891 49.7829C105.013 50.1494 105.16 50.507 105.331 50.8529C105.506 51.203 105.7 51.5435 105.911 51.8729C106.358 52.5317 106.862 53.1497 107.417 53.7199C107.684 54.0119 107.976 54.3029 108.267 54.5949C108.558 54.8619 108.85 55.1539 109.167 55.4209C109.773 55.9608 110.423 56.4488 111.11 56.8799C111.453 57.0979 111.81 57.2926 112.179 57.4629C112.542 57.6469 112.925 57.7857 113.321 57.8759C112.503 57.7731 111.712 57.5173 110.989 57.1219C110.257 56.745 109.558 56.3057 108.9 55.8089C108.241 55.3091 107.608 54.7751 107.005 54.2089C106.391 53.6367 105.831 53.0094 105.331 52.3349C104.818 51.6535 104.407 50.9001 104.113 50.0989C103.804 49.2764 103.663 48.3999 103.7 47.5219C103.718 47.0573 103.834 46.6016 104.04 46.1849C104.147 45.9606 104.278 45.7486 104.431 45.5529C104.596 45.3586 104.793 45.1942 105.014 45.0669C105.249 44.9384 105.504 44.8483 105.767 44.7999C106.025 44.7593 106.289 44.7674 106.544 44.8239C107.039 44.9273 107.488 45.1821 107.831 45.5529C108.462 46.2364 108.854 47.1064 108.948 48.0319C109.005 48.4973 108.964 48.9694 108.827 49.4179C108.707 49.8854 108.465 50.313 108.127 50.6579C107.799 50.9984 107.402 51.2638 106.961 51.4359C106.542 51.6022 106.099 51.7007 105.649 51.7279C104.768 51.7999 103.883 51.6579 103.069 51.3139C102.285 50.9567 101.576 50.4538 100.98 49.8319C100.395 49.2289 99.8816 48.5601 99.4503 47.8389C98.6099 46.399 97.9646 44.8538 97.5312 43.2439C98.1251 44.7576 98.8998 46.194 99.8382 47.5219V47.5219Z" fill="#EAEAFF"/>
<path d="M104.089 32.0619L77.3711 25.0129L98.9881 40.8129L104.089 32.0619Z" fill="#DADAF7"/>
<path d="M102.146 35.2229L91.7011 39.8409L77.3711 25.0129L102.146 35.2229Z" fill="#F4F3FD"/>
<path d="M115.262 27.6869L77.3711 25.0129L104.089 32.0619L115.262 27.6869Z" fill="#F4F3FD"/>
<path opacity="0.999" d="M21.021 126.866H142.708C142.74 118.855 141.191 110.917 138.148 103.506C135.104 96.096 130.628 89.3595 124.975 83.6835C119.322 78.0075 112.603 73.5036 105.205 70.4305C97.8075 67.3574 89.8754 65.7754 81.8645 65.7754C73.8536 65.7754 65.9216 67.3574 58.5236 70.4305C51.1256 73.5036 44.4073 78.0075 38.7542 83.6835C33.1011 89.3595 28.6246 96.096 25.5814 103.506C22.5383 110.917 20.9885 118.855 21.021 126.866V126.866Z" fill="#F4F3FD"/>
<path d="M114.266 68.841C115.383 68.452 116.501 68.141 117.642 67.82C118.784 67.529 119.926 67.261 121.095 67.042C122.264 66.8193 123.449 66.6813 124.638 66.629C125.866 66.5532 127.098 66.6348 128.305 66.872C128.939 66.9994 129.558 67.1949 130.151 67.455C130.774 67.7207 131.342 68.0998 131.827 68.573C132.34 69.0537 132.753 69.6316 133.041 70.273C133.315 70.8978 133.487 71.5626 133.551 72.242C133.641 73.5253 133.518 74.8147 133.187 76.058C132.869 77.2403 132.455 78.3945 131.948 79.509C130.948 81.6846 129.77 83.774 128.426 85.756C125.778 89.6785 122.813 93.3775 119.561 96.816C117.961 98.542 116.282 100.216 114.561 101.824C114.148 102.237 113.687 102.624 113.225 103.015L111.865 104.182C111.646 104.376 111.404 104.547 111.165 104.741L110.465 105.276L109.056 106.37C108.109 107.07 107.137 107.731 106.166 108.436C105.68 108.776 105.194 109.092 104.709 109.436L103.252 110.408L102.523 110.894L101.77 111.356L100.288 112.304C99.7779 112.62 99.2879 112.936 98.7819 113.228L97.2759 114.128L95.7699 115.028L94.2399 115.903C93.2199 116.486 92.1999 117.07 91.1799 117.629C89.1133 118.747 87.0486 119.841 84.9859 120.911C80.7949 123.025 76.5949 125.067 72.2949 126.914C76.3509 124.58 80.3829 122.247 84.3949 119.865C86.3869 118.674 88.4029 117.483 90.3699 116.243L93.3329 114.396L94.8149 113.472L96.2719 112.524C100.158 109.972 104.044 107.424 107.663 104.575C108.537 103.846 109.463 103.141 110.335 102.412L111.622 101.27C112.035 100.881 112.472 100.516 112.885 100.103C114.561 98.503 116.185 96.87 117.767 95.168C119.346 93.491 120.876 91.741 122.333 89.968C123.815 88.193 125.199 86.368 126.511 84.474C127.831 82.6161 129 80.6547 130.005 78.609C130.487 77.612 130.893 76.5801 131.219 75.522C131.546 74.5182 131.702 73.4665 131.68 72.411C131.66 71.453 131.288 70.5359 130.636 69.834C129.883 69.1393 128.962 68.6532 127.964 68.424C126.889 68.1706 125.789 68.0401 124.685 68.035C123.549 68.0276 122.413 68.0924 121.285 68.229C118.984 68.4949 116.704 68.9172 114.46 69.493C113.343 69.76 112.201 70.076 111.084 70.393C109.967 70.71 108.849 71.074 107.732 71.438C109.858 70.4472 112.04 69.5801 114.266 68.841V68.841Z" fill="#DADAF7"/>
<path d="M102.631 93.076C101.381 93.077 100.159 92.7072 99.1186 92.0134C98.0786 91.3195 97.2678 90.3328 96.7887 89.1781C96.3096 88.0233 96.1837 86.7524 96.427 85.5261C96.6703 84.2998 97.2718 83.1733 98.1555 82.2889C99.0391 81.4045 100.165 80.8021 101.391 80.5578C102.617 80.3136 103.888 80.4384 105.044 80.9166C106.199 81.3948 107.186 82.2049 107.881 83.2443C108.575 84.2837 108.946 85.5058 108.946 86.756C108.947 88.4315 108.282 90.0386 107.097 91.2238C105.913 92.409 104.307 93.0752 102.631 93.076V93.076Z" fill="#EAEAFF"/>
<path d="M74.092 105.96C71.9041 105.962 69.7647 105.315 67.9445 104.101C66.1243 102.887 64.705 101.161 63.8661 99.1402C63.0273 97.1195 62.8067 94.8954 63.2321 92.7493C63.6575 90.6031 64.7099 88.6314 66.2562 87.0835C67.8024 85.5356 69.773 84.481 71.9186 84.0533C74.0643 83.6255 76.2886 83.8438 78.3102 84.6804C80.3319 85.517 82.0599 86.9345 83.2758 88.7534C84.4917 90.5723 85.1408 92.711 85.141 94.8988C85.1423 97.8307 83.979 100.643 81.907 102.717C79.835 104.792 77.0239 105.958 74.092 105.96V105.96Z" fill="#EAEAFF"/>
<path d="M33.6031 102.387L46.2331 107.224L37.9791 126.671L33.6071 126.695L27.5791 117.434L33.6031 102.387Z" fill="#F9ACC0"/>
<path d="M55.9 69.6919C57.795 70.5669 56.459 72.5599 54.637 74.6509C52.912 76.6199 42.537 97.1609 42.537 97.1609C42.537 97.1609 43.144 121.396 36.562 125.675C29.98 129.954 16.474 123.584 21.288 107.759C26.102 91.9339 43.439 65.7299 49.22 63.5909C55.001 61.4519 56.555 63.5909 56.167 66.1909C55.997 67.3819 54.904 67.6979 53.349 69.4729C51.503 71.5399 49.974 73.5819 49.974 73.5819C49.974 73.5819 53.981 68.8159 55.9 69.6919Z" fill="#F9D2DD"/>
<path d="M48.3698 71.0048C48.3489 70.9823 48.3354 70.9539 48.3311 70.9235C48.3268 70.8931 48.3319 70.8621 48.3458 70.8348C49.7765 69.0844 51.3007 67.4127 52.9118 65.8268C53.7736 65.0046 54.8382 64.4259 55.9968 64.1498C56.0292 64.1456 56.0619 64.1535 56.0888 64.172C56.1158 64.1904 56.135 64.2181 56.1428 64.2498C56.1469 64.2821 56.139 64.3149 56.1206 64.3418C56.1022 64.3687 56.0745 64.3879 56.0428 64.3958C54.9337 64.6647 53.913 65.2159 53.0798 65.9958C51.4771 67.5738 49.9616 69.238 48.5398 70.9808C48.528 70.996 48.5128 71.0084 48.4955 71.0169C48.4782 71.0254 48.4591 71.0298 48.4398 71.0298C48.427 71.0309 48.4141 71.0292 48.4021 71.0249C48.39 71.0206 48.379 71.0137 48.3698 71.0048V71.0048Z" fill="white"/>
<path d="M45.8428 69.5218C45.8314 69.5108 45.8223 69.4976 45.8161 69.483C45.8098 69.4684 45.8066 69.4527 45.8066 69.4368C45.8066 69.421 45.8098 69.4052 45.8161 69.3906C45.8223 69.376 45.8314 69.3628 45.8428 69.3518C47.2513 67.7046 48.7766 66.161 50.4068 64.7328C51.548 63.8589 52.8195 63.1698 54.1748 62.6908C54.2038 62.6818 54.2352 62.6844 54.2625 62.698C54.2897 62.7116 54.3106 62.7352 54.3208 62.7638C54.3297 62.793 54.327 62.8245 54.3132 62.8517C54.2994 62.879 54.2756 62.8998 54.2468 62.9098C52.9184 63.3751 51.6723 64.0481 50.5548 64.9038C48.9435 66.3276 47.4342 67.8627 46.0378 69.4978C45.9888 69.5218 45.9648 69.5468 45.9168 69.5468C45.9034 69.5486 45.8897 69.5472 45.8769 69.5429C45.8641 69.5385 45.8524 69.5313 45.8428 69.5218V69.5218Z" fill="white"/>
<path d="M55.7539 89.43H65.9539L65.4699 80.193L55.9969 79.707L55.7539 89.43Z" fill="#F9D2DD"/>
<path d="M65.615 82.648L65.591 82.599L55.975 80.728L55.875 85.028L65.615 82.648Z" fill="#F9ACC0"/>
<path d="M71.542 63.9059C68.141 58.3149 54.054 62.9339 51.382 66.3369C48.71 69.7399 52.548 78.9529 54.297 80.9219C57.94 85.0539 65.956 82.8669 65.956 82.8669L71.056 72.1669C71.056 72.1669 73.971 67.9169 71.542 63.9059Z" fill="#1F1F39"/>
<path d="M68.8707 72.4138C68.3597 72.4868 66.7087 72.2678 66.3197 72.2678C66.5746 72.8396 66.6752 73.4682 66.6113 74.0909C66.5474 74.7136 66.3214 75.3087 65.9557 75.8168C65.9615 75.1377 65.7942 74.4684 65.4697 73.8718C64.2557 71.6848 59.8837 73.1388 61.3407 76.5468C62.2877 78.7588 64.9837 78.0048 64.9837 78.0048C65.1547 78.8046 65.2362 79.621 65.2267 80.4388C65.2861 81.2781 65.1182 82.1179 64.7407 82.8698C64.7407 82.8698 69.3557 83.1128 70.5697 79.4698C71.3151 76.8964 71.5952 74.2106 71.3967 71.5388C70.6689 72.0911 69.7842 72.3975 68.8707 72.4138V72.4138Z" fill="#F9D2DD"/>
<path d="M55.9 69.6919C57.795 70.5669 56.459 72.5599 54.637 74.6509C52.912 76.6199 42.537 97.1609 42.537 97.1609C42.537 97.1609 43.144 121.396 36.562 125.675C29.98 129.954 16.474 123.584 21.288 107.759C26.102 91.9339 43.439 65.7299 49.22 63.5909C55.001 61.4519 56.555 63.5909 56.167 66.1909C55.997 67.3819 54.904 67.6979 53.349 69.4729C51.503 71.5399 49.974 73.5819 49.974 73.5819C49.974 73.5819 53.981 68.8159 55.9 69.6919Z" fill="#F9D2DD"/>
<path d="M48.3698 71.0048C48.3489 70.9823 48.3354 70.9539 48.3311 70.9235C48.3268 70.8931 48.3319 70.8621 48.3458 70.8348C49.7765 69.0844 51.3007 67.4127 52.9118 65.8268C53.7736 65.0046 54.8382 64.4259 55.9968 64.1498C56.0292 64.1456 56.0619 64.1535 56.0888 64.172C56.1158 64.1904 56.135 64.2181 56.1428 64.2498C56.1469 64.2821 56.139 64.3149 56.1206 64.3418C56.1022 64.3687 56.0745 64.3879 56.0428 64.3958C54.9337 64.6647 53.913 65.2159 53.0798 65.9958C51.4771 67.5738 49.9616 69.238 48.5398 70.9808C48.528 70.996 48.5128 71.0084 48.4955 71.0169C48.4782 71.0254 48.4591 71.0298 48.4398 71.0298C48.427 71.0309 48.4141 71.0292 48.4021 71.0249C48.39 71.0206 48.379 71.0137 48.3698 71.0048V71.0048Z" fill="white"/>
<path d="M45.8428 69.5218C45.8314 69.5108 45.8223 69.4976 45.8161 69.483C45.8098 69.4684 45.8066 69.4527 45.8066 69.4368C45.8066 69.421 45.8098 69.4052 45.8161 69.3906C45.8223 69.376 45.8314 69.3628 45.8428 69.3518C47.2513 67.7046 48.7766 66.161 50.4068 64.7328C51.548 63.8589 52.8195 63.1698 54.1748 62.6908C54.2038 62.6818 54.2352 62.6844 54.2625 62.698C54.2897 62.7116 54.3106 62.7352 54.3208 62.7638C54.3297 62.793 54.327 62.8245 54.3132 62.8517C54.2994 62.879 54.2756 62.8998 54.2468 62.9098C52.9184 63.3751 51.6723 64.0481 50.5548 64.9038C48.9435 66.3276 47.4342 67.8627 46.0378 69.4978C45.9888 69.5218 45.9648 69.5468 45.9168 69.5468C45.9034 69.5486 45.8897 69.5472 45.8769 69.5429C45.8641 69.5385 45.8524 69.5313 45.8428 69.5218V69.5218Z" fill="white"/>
<path d="M87.2809 102.606L74.6509 107.468L82.9089 126.914L97.0449 126.865L87.2809 102.606Z" fill="#F9D2DD"/>
<path d="M27.0202 110.433C26.9937 110.415 26.9744 110.388 26.9654 110.357C26.9565 110.326 26.9585 110.293 26.9712 110.263L30.1292 104.915C30.1476 104.888 30.1746 104.869 30.2056 104.86C30.2366 104.852 30.2697 104.854 30.2992 104.867C30.3257 104.885 30.345 104.912 30.354 104.943C30.3629 104.974 30.3608 105.007 30.3482 105.037L27.1902 110.385C27.1902 110.434 27.1412 110.458 27.0902 110.458C27.0774 110.459 27.0645 110.457 27.0525 110.453C27.0404 110.449 27.0294 110.442 27.0202 110.433V110.433Z" fill="white"/>
<path d="M42.5159 117.507L44.2159 108.756L31.3429 104.137L30.1289 105.109L42.5159 117.507Z" fill="#F9ACC0"/>
<path d="M89.2239 107.419L87.2809 102.606L74.6509 107.468L77.8089 114.931L89.2239 107.419Z" fill="#F9ACC0"/>
<path d="M42.1021 110.385L30.2021 104.793C30.2021 104.793 31.1251 103.432 32.7521 101.463C35.9821 97.5979 40.9371 91.6629 47.6651 88.7499C57.9391 84.3259 69.1851 86.0029 75.1111 89.4789C81.5841 93.2839 86.7506 98.9629 89.9282 105.766L77.7841 110.385L82.9091 126.915H37.0021L42.1021 110.385Z" fill="#3D5CFF"/>
<path d="M42.0549 110.505C42.0399 110.501 42.0259 110.494 42.0138 110.484C42.0018 110.475 41.992 110.463 41.985 110.449C41.9781 110.435 41.9742 110.42 41.9737 110.404C41.9732 110.389 41.9759 110.373 41.9819 110.359L45.6249 100.393C45.6287 100.378 45.6357 100.364 45.6456 100.351C45.6554 100.339 45.6678 100.329 45.6819 100.322C45.696 100.315 45.7115 100.311 45.7272 100.311C45.7429 100.311 45.7585 100.314 45.7729 100.32C45.7879 100.324 45.8019 100.331 45.8139 100.341C45.826 100.35 45.8358 100.363 45.8427 100.376C45.8496 100.39 45.8535 100.405 45.854 100.421C45.8546 100.436 45.8518 100.452 45.8459 100.466L42.2009 110.432C42.2009 110.481 42.1519 110.505 42.1009 110.505H42.0549Z" fill="#DADAF7"/>
<path d="M77.6861 110.432L74.0431 100.466C74.0355 100.452 74.0315 100.436 74.0313 100.42C74.031 100.404 74.0347 100.388 74.0418 100.374C74.049 100.36 74.0594 100.347 74.0724 100.338C74.0853 100.329 74.1003 100.322 74.1161 100.32C74.1302 100.312 74.1459 100.308 74.1619 100.308C74.1778 100.308 74.1936 100.312 74.2079 100.319C74.2222 100.326 74.2346 100.336 74.244 100.349C74.2535 100.362 74.2596 100.377 74.2621 100.393L77.9051 110.359C77.9126 110.373 77.9167 110.389 77.9169 110.405C77.9171 110.421 77.9135 110.437 77.9063 110.451C77.8992 110.465 77.8887 110.477 77.8758 110.487C77.8629 110.496 77.8479 110.502 77.8321 110.505H77.8081C77.7829 110.505 77.7582 110.499 77.7366 110.486C77.715 110.473 77.6975 110.454 77.6861 110.432V110.432Z" fill="#DADAF7"/>
<path d="M136.876 125.528C136.896 124.064 136.624 122.611 136.078 121.254C135.531 119.896 134.721 118.66 133.693 117.618C132.664 116.576 131.44 115.749 130.089 115.184C128.739 114.619 127.29 114.328 125.826 114.328C124.362 114.328 122.913 114.619 121.563 115.184C120.212 115.749 118.987 116.576 117.959 117.618C116.931 118.66 116.12 119.896 115.574 121.254C115.027 122.611 114.756 124.064 114.776 125.528C114.775 125.976 114.8 126.423 114.849 126.868H136.806C136.854 126.423 136.878 125.976 136.876 125.528V125.528Z" fill="#EAEAFF"/>
<path d="M154.217 126.744V126.987H6.7832V126.744H154.217Z" fill="#DADAF7"/>
</svg>
