<svg width="15" height="15" viewBox="0 0 15 15" fill="none" xmlns="http://www.w3.org/2000/svg">
<path d="M1.44305 0L0.495844 0.285086L5.18552 5.1587L4.62136 5.23645L0.0053354 0.432566L0 0.434415L0.477461 2.86443L1.18948 3.60492L2.22695 3.24023L2.04404 4.49226L2.38907 4.85078L2.72164 4.68232L3.26677 5.24879L3.19611 5.68938L3.81371 6.33051L4.01208 6.22746L4.51448 6.8976L4.48122 7.02472L5.28173 7.85714L7.14286 5.92263L1.44305 0Z" fill="#4C4C4C"/>
<path d="M13.9257 9.13038L10.1556 5.36013C9.67487 4.87996 8.8965 4.87996 8.41636 5.36013L4.64634 9.13038C4.16558 9.60994 4.16558 10.3896 4.64634 10.8698L8.41572 14.6394C8.89587 15.1202 9.67487 15.1202 10.1556 14.6394L13.9257 10.8698C14.4058 10.3896 14.4058 9.60994 13.9257 9.13038ZM10.3963 12.6048C10.0956 12.9056 9.60867 12.9056 9.30858 12.6048C9.00849 12.3054 9.00849 11.8184 9.30858 11.5176L10.8035 10.0227C11.1042 9.72194 11.5905 9.72194 11.8906 10.0227C12.1913 10.3228 12.1913 10.8104 11.8906 11.1099L10.3963 12.6048Z" fill="#4C4C4C"/>
</svg>
