<svg width="14" height="14" viewBox="0 0 14 14" fill="none" xmlns="http://www.w3.org/2000/svg">
<path d="M6.99998 0C3.1401 0 0 3.13941 0 7C0 10.8606 3.1401 14 6.99998 14C10.8599 14 14 10.8606 14 7C14 3.13941 10.8599 0 6.99998 0ZM6.99998 0.951916C9.90019 0.951916 12.3297 3.00323 12.9133 5.73054H9.24182C8.79726 4.9501 7.95966 4.42157 6.99998 4.42157C6.0403 4.42157 5.202 4.9501 4.75815 5.73054H1.08596C1.67094 3.00323 4.09907 0.951916 6.99998 0.951916ZM6.23015 12.9987C3.45837 12.6452 1.2659 10.4083 0.981529 7.61532H4.4999C4.71512 8.49173 5.37702 9.19314 6.23015 9.46129V12.9987ZM6.23015 8.24899C5.98599 8.09798 5.7905 7.87712 5.66842 7.61532C5.58092 7.42833 5.53225 7.22016 5.53225 7C5.53225 6.45736 5.82721 5.98458 6.26471 5.73054C6.48134 5.60565 6.73184 5.53226 6.99998 5.53226C7.26742 5.53226 7.51863 5.60565 7.73385 5.73054C8.17205 5.98458 8.46702 6.45736 8.46702 7C8.46702 7.22016 8.41832 7.42833 8.33082 7.61532C8.22639 7.84254 8.0641 8.0373 7.8644 8.18407C7.62166 8.36119 7.32317 8.46774 6.99998 8.46774C6.71772 8.46774 6.45384 8.3873 6.23015 8.24899ZM7.8644 12.9867V9.42601C8.67166 9.1374 9.29193 8.45857 9.5001 7.61532H13.0177C12.7376 10.3765 10.5917 12.5944 7.8644 12.9867Z" fill="#4C4C4C"/>
</svg>
