<svg width="15" height="12" viewBox="0 0 15 12" fill="none" xmlns="http://www.w3.org/2000/svg">
<path d="M14.0322 12C14.5663 12 15 11.57 15 11.0397V0.95996C15 0.429994 14.5663 0 14.0322 0H6.4493C6.19247 0 5.94633 0.101071 5.76478 0.280968L0.28348 5.71874C0.101926 5.8988 0 6.14281 0 6.39731V11.0397C0 11.57 0.433678 12 0.967659 12H14.0322ZM1.36844 5.99996L6.4493 0.95996H14.0322V2.3999H7.05052L3.42141 5.99996H1.36844ZM7.49991 6.95983H0.967659V11.0397H14.0322V6.95983H9.4354V8.15982H10.8871L8.46757 10.5601L6.04834 8.15982H7.49991V6.95983V6.95983ZM7.49991 6.95983H9.4354V5.75984H10.8871L8.46757 3.35977L6.04834 5.75984H7.49991V6.95983Z" fill="#4D4D4D"/>
<path d="M7.49991 6.95983H0.967651V11.0397H14.0322V6.95983H9.4354V8.15982H10.8871L8.46757 10.5601L6.04833 8.15982H7.49991V6.95983V6.95983ZM7.49991 6.95983H9.4354V5.75984H10.8871L8.46757 3.35977L6.04833 5.75984H7.49991V6.95983Z" fill="white"/>
</svg>
