<svg width="15" height="15" viewBox="0 0 15 15" fill="none" xmlns="http://www.w3.org/2000/svg">
<path d="M13.6824 13.0247V13.9619H12.6689V13.4711C12.345 13.5634 12.0053 13.6157 11.6554 13.6244V15H14.6959V12.1472C14.407 12.4935 14.0645 12.7898 13.6824 13.0247Z" fill="#4D4D4D"/>
<path d="M8.07284 11.6799H4.05403V6.22928H7.43784V5.19103H4.12134L4.62807 1.03824H9.16049C9.65855 0.573648 10.2856 0.252167 10.9793 0.13643L10.9627 0H3.73331L3.09992 5.19103H3.04048V5.67806L2.97326 6.22928H3.04048V7.73257H0V15H3.04057V12.718H8.99146C8.63249 12.4277 8.32106 12.0776 8.07284 11.6799ZM2.02701 13.9618H1.01355V8.77082H2.02701V13.9618Z" fill="#4D4D4D"/>
<path d="M10.5718 5.16916H11.5933L11.2843 2.63641C10.8051 2.76002 10.4489 3.20384 10.4489 3.73243V4.16086L10.5718 5.16916Z" fill="#4D4D4D"/>
<path d="M14.442 5.8545V3.73242C14.442 2.10093 13.1462 0.773621 11.5535 0.773621C9.9609 0.773621 8.66515 2.10093 8.66515 3.73242V5.8545H8.10693V9.70046L8.10988 9.75906C8.2925 11.5733 9.77292 12.9415 11.5534 12.9415C13.3342 12.9415 14.8147 11.5733 14.997 9.75897L15 5.8545H14.442ZM12.3181 11.155H10.7894L11.2975 9.39684C10.8673 9.26636 10.5959 8.83216 10.6598 8.37745C10.7245 7.92229 11.1052 7.58497 11.5534 7.58497C12.0025 7.58497 12.3827 7.92229 12.4472 8.37745C12.5114 8.83216 12.2404 9.26636 11.8102 9.39684L12.3181 11.155ZM9.77998 3.73242C9.77998 2.73062 10.5755 1.91561 11.5535 1.91561C12.5315 1.91561 13.3272 2.73062 13.3272 3.73242V5.8545H9.78007V3.73242H9.77998Z" fill="#4D4D4D"/>
</svg>
